0
SECTION
2
HEADER
9
$INSUNITS
70
4
9
$ACADVER
1
AC1014
9
$HANDSEED
5
FFFF
0
ENDSEC
0
SECTION
2
TABLES
0
TABLE
2
VPORT
5
8
100
AcDbSymbolTable
0
ENDTAB
0
TABLE
2
LTYPE
5
5
100
AcDbSymbolTable
0
LTYPE
5
14
100
AcDbSymbolTableRecord
100
AcDbLinetypeTableRecord
2
BYBLOCK
70
0
0
LTYPE
5
15
100
AcDbSymbolTableRecord
100
AcDbLinetypeTableRecord
2
BYLAYER
70
0
0
ENDTAB
0
TABLE
2
LAYER
5
2
100
AcDbSymbolTable
70
2
0
LAYER
5
50
100
AcDbSymbolTableRecord
100
AcDbLayerTableRecord
2
0
70
0
6
CONTINUOUS
0
ENDTAB
0
TABLE
2
STYLE
5
3
100
AcDbSymbolTable
70
1
0
STYLE
5
11
100
AcDbSymbolTableRecord
100
AcDbTextStyleTableRecord
2
STANDARD
70
0
0
ENDTAB
0
TABLE
2
VIEW
5
6
100
AcDbSymbolTable
70
0
0
ENDTAB
0
TABLE
2
UCS
5
7
100
AcDbSymbolTable
70
0
0
ENDTAB
0
TABLE
2
APPID
5
9
100
AcDbSymbolTable
70
2
0
APPID
5
12
100
AcDbSymbolTableRecord
100
AcDbRegAppTableRecord
2
ACAD
70
0
0
ENDTAB
0
TABLE
2
DIMSTYLE
5
A
100
AcDbSymbolTable
70
1
0
ENDTAB
0
TABLE
2
BLOCK_RECORD
5
1
100
AcDbSymbolTable
70
1
0
BLOCK_RECORD
5
1F
100
AcDbSymbolTableRecord
100
AcDbBlockTableRecord
2
*MODEL_SPACE
0
BLOCK_RECORD
5
1B
100
AcDbSymbolTableRecord
100
AcDbBlockTableRecord
2
*PAPER_SPACE
0
ENDTAB
0
ENDSEC
0
SECTION
2
BLOCKS
0
BLOCK
5
20
100
AcDbEntity
100
AcDbBlockBegin
2
*MODEL_SPACE
0
ENDBLK
5
21
100
AcDbEntity
100
AcDbBlockEnd
0
BLOCK
5
1C
100
AcDbEntity
100
AcDbBlockBegin
2
*PAPER_SPACE
0
ENDBLK
5
1D
100
AcDbEntity
100
AcDbBlockEnd
0
ENDSEC
0
SECTION
2
ENTITIES
0
SPLINE
5
100
100
AcDbEntity
8
0
100
AcDbSpline
70
0
71
3
72
11
73
7
74
0
42
0.000000001
43
0.0000000001
44
0.0000000001
40
0
40
0
40
0
40
0
40
0.50610719267131421
40
0.50610719267131421
40
0.50610719267131421
40
1
40
1
40
1
40
1
10
-14.644742755972246
20
92.463419824860267
30
0
10
-15.366988238442412
20
91.60267068807363
30
0
10
-16.083542692781389
20
90.740813343485982
30
0
10
-16.792047794273518
20
89.876642614147187
30
0
10
-17.483453841549156
20
89.033327771550972
30
0
10
-18.167213336368846
20
88.187864123216173
30
0
10
-18.840093153764098
20
87.337962932796074
30
0
0
SPLINE
5
101
100
AcDbEntity
8
0
100
AcDbSpline
70
2
71
3
72
71
73
67
74
0
42
0.000000001
43
0.0000000001
44
0.0000000001
40
0
40
0
40
0
40
0
40
0.39538436692468282
40
0.39538436692468282
40
0.39538436692468282
40
0.76564300648496697
40
0.76564300648496697
40
0.76564300648496697
40
1
40
1
40
1
40
1.6175099783647346
40
1.6175099783647346
40
1.6175099783647346
40
2
40
2
40
2
40
2.3446803193753176
40
2.3446803193753176
40
2.3446803193753176
40
2.8837733230555096
40
2.8837733230555096
40
2.8837733230555096
40
3
40
3
40
3
40
3.4726239854394709
40
3.4726239854394709
40
3.4726239854394709
40
3.8417060813492236
40
3.8417060813492236
40
3.8417060813492236
40
4
40
4
40
4
40
4.3512133045115622
40
4.3512133045115622
40
4.3512133045115622
40
4.7976050539635891
40
4.7976050539635891
40
4.7976050539635891
40
5
40
5
40
5
40
5.4130824749814872
40
5.4130824749814872
40
5.4130824749814872
40
5.8383546687127863
40
5.8383546687127863
40
5.8383546687127863
40
6
40
6
40
6
40
6.5007632697109567
40
6.5007632697109567
40
6.5007632697109567
40
6.8800486688591045
40
6.8800486688591045
40
6.8800486688591045
40
7
40
7
40
7
40
7.5402879961493525
40
7.5402879961493525
40
7.5402879961493525
40
8
40
8
40
8
40
8
10
-18.840093153764098
20
87.337962932796074
30
0
10
-22.463893385773488
20
87.508685042419927
30
0
10
-25.450981863136754
20
87.491944608138951
30
0
10
-28.234758233161116
20
86.876561476705149
30
0
10
-30.841632297561411
20
86.300284465994622
30
0
10
-33.208366825145241
20
85.156345328551154
30
0
10
-35.457379415719465
20
83.425138945173018
30
0
10
-36.880902793135789
20
82.32936350656513
30
0
10
-38.272023406276496
20
81.010876013878061
30
0
10
-39.754301911199825
20
79.446390725072163
30
0
10
-43.659974849639383
20
75.324110172004225
30
0
10
-48.407013714509716
20
69.255814432352508
30
0
10
-52.005241982768055
20
62.415249453774891
30
0
10
-54.234009867328211
20
58.178155417525694
30
0
10
-56.024022051298807
20
53.649833157482462
30
0
10
-56.837808774679189
20
49.02784895780438
30
0
10
-57.571151481291352
20
44.862754707027115
30
0
10
-57.469020996712885
20
40.695969579004583
30
0
10
-56.646417458092657
20
35.741368012289968
30
0
10
-55.359834536049291
20
27.992184521107355
30
0
10
-52.364184523807289
20
18.192875128330893
30
0
10
-47.834327486001342
20
2.2465052285455696
30
0
10
-46.857705220559865
20
-1.191479627735722
30
0
10
-45.809427300982463
20
-4.9135590077364935
30
0
10
-44.691404978742682
20
-8.9585169348935985
30
0
10
-40.145080678344613
20
-25.406927805153746
30
0
10
-34.350725474181353
20
-47.400123117533859
30
0
10
-26.433236327728039
20
-67.826586866721229
30
0
10
-20.250301101115518
20
-83.778045711037933
30
0
10
-12.762070968947864
20
-98.748690457999743
30
0
10
-3.9022216807572994
20
-109.41651367032563
30
0
10
-0.10236176334233238
20
-113.99178718932527
30
0
10
3.9477696275867551
20
-117.77946644905481
30
0
10
8.2643458579380074
20
-120.52734652813918
30
0
10
17.841713169075007
20
-126.62418240915541
30
0
10
28.614888337268635
20
-127.63340869928734
30
0
10
38.920104522102676
20
-124.86634409398039
30
0
10
52.018023712911592
20
-121.34940782151327
30
0
10
64.313225177904712
20
-111.73391158068154
30
0
10
72.046038923275788
20
-98.642643143916459
30
0
10
75.552112730923952
20
-92.707034853530729
30
0
10
78.11914154213764
20
-86.057846361351352
30
0
10
79.417121103068695
20
-78.908239704339294
30
0
10
82.066261410200312
20
-64.31609068649108
30
0
10
79.3290572238284
20
-47.694460980518144
30
0
10
74.024322720600622
20
-31.180297620929245
30
0
10
68.563049933729459
20
-14.178815096442694
30
0
10
60.336565370617805
20
2.6421770370464737
30
0
10
52.772379215737466
20
16.936741588551119
30
0
10
49.897243255881278
20
22.370084413674487
30
0
10
47.12124867250018
20
27.443121412013369
30
0
10
44.637281611295442
20
32.030837250348128
30
0
10
36.942166277509159
20
46.243184525799464
30
0
10
31.966388774123111
20
56.051507431858894
30
0
10
27.667733854186007
20
63.223789715055872
30
0
10
24.411869964548938
20
68.656180852999654
30
0
10
21.514188773774087
20
72.624360826442285
30
0
10
18.079362820683762
20
75.734559016515462
30
0
10
16.993078069844863
20
76.718178248495349
30
0
10
15.856704307013471
20
77.611496641042592
30
0
10
14.652782711399439
20
78.429486343646289
30
0
10
9.2300468382043519
20
82.113897455111442
30
0
10
2.5868671214562582
20
84.23222167031804
30
0
10
-3.8430993715573196
20
85.53584626664184
30
0
10
-9.3141311217772156
20
86.645054466187602
30
0
10
-14.626713451453258
20
87.139464940254669
30
0
10
-18.840093153764098
20
87.337962932796074
30
0
0
SPLINE
5
102
100
AcDbEntity
8
0
100
AcDbSpline
70
0
71
3
72
11
73
7
74
0
42
0.000000001
43
0.0000000001
44
0.0000000001
40
0
40
0
40
0
40
0
40
0.50610719267131421
40
0.50610719267131421
40
0.50610719267131421
40
1
40
1
40
1
40
1
10
-14.644742755972246
20
92.463419824860267
30
0
10
-15.366988238442412
20
91.60267068807363
30
0
10
-16.083542692781389
20
90.740813343485982
30
0
10
-16.792047794273518
20
89.876642614147187
30
0
10
-17.483453841549156
20
89.033327771550972
30
0
10
-18.167213336368846
20
88.187864123216173
30
0
10
-18.840093153764098
20
87.337962932796074
30
0
0
SPLINE
5
103
100
AcDbEntity
8
0
100
AcDbSpline
70
2
71
3
72
65
73
61
74
0
42
0.000000001
43
0.0000000001
44
0.0000000001
40
-8
40
-8
40
-8
40
-8
40
-7.2226638236000147
40
-7.2226638236000147
40
-7.2226638236000147
40
-7
40
-7
40
-7
40
-6.4730168123556844
40
-6.4730168123556844
40
-6.4730168123556844
40
-6.0840261617917735
40
-6.0840261617917735
40
-6.0840261617917735
40
-6
40
-6
40
-6
40
-5.651364236454012
40
-5.651364236454012
40
-5.651364236454012
40
-5.044617850994972
40
-5.044617850994972
40
-5.044617850994972
40
-5
40
-5
40
-5
40
-4.1605574951795496
40
-4.1605574951795496
40
-4.1605574951795496
40
-4
40
-4
40
-4
40
-3.5
40
-3.5
40
-3.5
40
-3.1338626860064878
40
-3.1338626860064878
40
-3.1338626860064878
40
-3
40
-3
40
-3
40
-2.6498189482603705
40
-2.6498189482603705
40
-2.6498189482603705
40
-2.1052594837551442
40
-2.1052594837551442
40
-2.1052594837551442
40
-2
40
-2
40
-2
40
-1.2603679095104496
40
-1.2603679095104496
40
-1.2603679095104496
40
-1
40
-1
40
-1
40
-0.19888749031997932
40
-0.19888749031997932
40
-0.19888749031997932
40
0
40
0
40
0
40
0
10
-14.644742755972242
20
92.463419824860281
30
0
10
-5.6332756304077432
20
92.457567500784435
30
0
10
3.293681714441318
20
89.572749977694386
30
0
10
10.684420646617534
20
84.456362836917336
30
0
10
12.801458602433787
20
82.99080088525389
30
0
10
14.792119112564555
20
81.340060362261909
30
0
10
16.618829970739473
20
79.516067714715774
30
0
10
20.942145251064332
20
75.199185681061522
30
0
10
24.303512195240486
20
69.966297192941454
30
0
10
26.512336626588187
20
64.287252671854816
30
0
10
28.142772042131892
20
60.095287397376424
30
0
10
29.144814103634648
20
55.645736748412006
30
0
10
29.309651108624134
20
51.15955256648239
30
0
10
29.345257673538843
20
50.19048856108266
30
0
10
29.341987329391785
20
49.220400847346767
30
0
10
29.299461354237021
20
48.252494988004059
30
0
10
29.123015405707807
20
44.236524353181863
30
0
10
28.291218744275241
20
40.299370599740868
30
0
10
27.032707282430323
20
36.548600022269703
30
0
10
24.842463594385823
20
30.020966518982966
30
0
10
21.319079325663704
20
24.005738329134353
30
0
10
16.634390466161882
20
19.091342366837772
30
0
10
16.289896037352189
20
18.729956140185347
30
0
10
15.939099335888516
20
18.374641082812953
30
0
10
15.582071433669839
20
18.025680798361982
30
0
10
8.8649304274163114
20
11.460324360747155
30
0
10
-0.01555392768748276
20
7.2150778603082033
30
0
10
-9.2910238410448063
20
5.9913467446728532
30
0
10
-11.065113439022054
20
5.7572875904467837
30
0
10
-12.853502983756972
20
5.6330401354138786
30
0
10
-14.644742755972244
20
5.6218352541067338
30
0
10
-20.222930713538933
20
5.5869415816107395
30
0
10
-25.793938348845074
20
6.6496722816876028
30
0
10
-31.062574919811293
20
8.6163419132986334
30
0
10
-34.920663804814417
20
10.056484186159977
30
0
10
-38.633745592524406
20
11.965539090390326
30
0
10
-42.055005095564255
20
14.374239364136667
30
0
10
-43.305844518639972
20
15.254879157200644
30
0
10
-44.515044659460791
20
16.205607294385864
30
0
10
-45.662527663621773
20
17.234710080354546
30
0
10
-48.664311187007605
20
19.926814255832021
30
0
10
-51.188713824759105
20
23.155355583470811
30
0
10
-53.179078613178817
20
26.680093764235608
30
0
10
-56.274254602763172
20
32.161342754445272
30
0
10
-58.165265110546763
20
38.318584651243199
30
0
10
-58.703126900549464
20
44.599117842479217
30
0
10
-58.807091771307412
20
45.813100381589429
30
0
10
-58.859606608869456
20
47.032155534298106
30
0
10
-58.858837712484437
20
48.252494988004067
30
0
10
-58.85343486971589
20
56.82751539520136
30
0
10
-56.239667697628732
20
65.326140768785052
30
0
10
-51.579052606364087
20
72.496749794381557
30
0
10
-49.938406366228335
20
75.020972993885493
30
0
10
-48.041516267421834
20
77.380409781141296
30
0
10
-45.908139477876837
20
79.515891709908644
30
0
10
-39.344063139978871
20
86.086445241439321
30
0
10
-30.67050205908922
20
90.433049833805867
30
0
10
-21.522526105054432
20
91.909733791834768
30
0
10
-19.251411926932054
20
92.276341431659858
30
0
10
-16.950396519579268
20
92.464917187369977
30
0
10
-14.644742755972242
20
92.463419824860281
30
0
0
ENDSEC
0
SECTION
2
OBJECTS
0
DICTIONARY
5
C
100
AcDbDictionary
3
ACAD_GROUP
350
D
3
ACAD_MLINESTYLE
350
17
0
DICTIONARY
5
D
100
AcDbDictionary
0
DICTIONARY
5
1A
330
C
100
AcDbDictionary
0
DICTIONARY
5
17
100
AcDbDictionary
0
ENDSEC
0
EOF
