<?xml version="1.0" encoding="utf-8"?>
<!-- Generator: Adobe Illustrator 27.0.1, SVG Export Plug-In . SVG Version: 6.00 Build 0)  -->
<svg version="1.1" id="レイヤー_1" xmlns="http://www.w3.org/2000/svg" xmlns:xlink="http://www.w3.org/1999/xlink" x="0px"
	 y="0px" viewBox="0 0 1280 1024" style="enable-background:new 0 0 1280 1024;" xml:space="preserve">
<style type="text/css">
	.st0{fill:#97DAFF;}
	.st1{fill:#FFFFFF;}
	.st2{font-family:'Yomogi-Regular';}
	.st3{font-size:57px;}
	.st4{fill:none;stroke:#FFFFFF;stroke-miterlimit:10;}
	.st5{fill:#97BC71;}
</style>
<g>
	<rect x="0.5" y="0.5" class="st0" width="1279" height="134"/>
	<path class="st1" d="M1279,1v133H1V1H1279 M1280,0H0v135h1280V0L1280,0z"/>
</g>
<text transform="matrix(1 0 0 1 211.0527 93.8281)" class="st1 st2 st3">かわせみの課外活動</text>
<text transform="matrix(1 0 0 1 211.0527 93.8281)" class="st4 st2 st3">かわせみの課外活動</text>
<image style="overflow:visible;enable-background:new    ;" width="1280" height="1280" xlink:href="947A9FDA.png"  transform="matrix(0.1016 0 0 0.1016 762 3)">
</image>
<path class="st5" d="M57,134c-6.5-2.6-18.5-8.5-26-21c-18.6-30.9,6.2-75.1,14-74c5.9,0.8-2.2,26.8,15,45c12.6,13.4,26.4,9.5,50,22
	c17.1,9.1,28.5,21,35,29"/>
</svg>
